<?xml version="1.0" encoding="UTF-8"?>
<svg width="20px" height="20px" viewBox="0 0 20 20" version="1.1" xmlns="http://www.w3.org/2000/svg" xmlns:xlink="http://www.w3.org/1999/xlink">
    <!-- Generator: Sketch 52.6 (67491) - http://www.bohemiancoding.com/sketch -->
    <title>Shape</title>
    <desc>Created with Sketch.</desc>
    <g id="Symbols" stroke="none" stroke-width="1" fill="none" fill-rule="evenodd">
        <g id="header" transform="translate(-760.000000, -22.000000)" fill="#7F7777" fill-rule="nonzero">
            <g id="nav">
                <g transform="translate(760.000000, 20.000000)">
                    <g id="logos_header" transform="translate(0.000000, 2.000000)">
                        <g id="facebook">
                            <path d="M10,0 C4.4775,0 0,4.4775 0,10 C0,15.5225 4.4775,20 10,20 C15.5225,20 20,15.5225 20,10 C20,4.4775 15.5225,0 10,0 Z M12.5,6.66666667 L11.375,6.66666667 C10.9266667,6.66666667 10.8333333,6.85083333 10.8333333,7.315 L10.8333333,8.33333333 L12.5,8.33333333 L12.3258333,10 L10.8333333,10 L10.8333333,15.8333333 L8.33333333,15.8333333 L8.33333333,10 L6.66666667,10 L6.66666667,8.33333333 L8.33333333,8.33333333 L8.33333333,6.41 C8.33333333,4.93583333 9.10916667,4.16666667 10.8575,4.16666667 L12.5,4.16666667 L12.5,6.66666667 Z" id="Shape"></path>
                        </g>
                    </g>
                </g>
            </g>
        </g>
    </g>
</svg>